<svg width="32" height="32" viewBox="0 0 132 114" fill="none" xmlns="http://www.w3.org/2000/svg">
<path d="M68.3105 40.0469C68.3105 43.9531 67.4967 47.3223 65.8691 50.1543C64.2741 52.9538 62.0605 55.2324 59.2285 56.9902C56.2988 58.8132 52.946 60.1315 49.1699 60.9453C45.4264 61.7591 41.2109 62.166 36.5234 62.166H30.8594V81.6484C30.8594 82.8203 31.071 83.8457 31.4941 84.7246C31.9499 85.571 32.7962 86.2546 34.0332 86.7754C34.6842 87.0358 35.7422 87.3125 37.207 87.6055C38.6719 87.8984 39.9089 88.0938 40.918 88.1914V92H3.36914V88.1914C4.31315 88.0938 5.56641 87.9635 7.12891 87.8008C8.69141 87.6055 9.7819 87.3776 10.4004 87.1172C11.6699 86.5964 12.5 85.9616 12.8906 85.2129C13.3138 84.4642 13.5254 83.4225 13.5254 82.0879V33.2109C13.5254 32.0716 13.3301 31.0951 12.9395 30.2812C12.5488 29.4349 11.7025 28.735 10.4004 28.1816C9.48893 27.791 8.26823 27.4492 6.73828 27.1562C5.24089 26.8307 4.11784 26.6191 3.36914 26.5215V22.7129H41.6016C50.5534 22.7129 57.2428 24.1452 61.6699 27.0098C66.097 29.8418 68.3105 34.1875 68.3105 40.0469ZM49.2676 42.5371C49.2676 37.3288 48.2096 33.4714 46.0938 30.9648C44.0104 28.4258 40.2832 27.1562 34.9121 27.1562H30.8594V57.5762H32.9102C38.2487 57.5762 42.3014 56.3555 45.0684 53.9141C47.8678 51.4401 49.2676 47.6478 49.2676 42.5371Z" fill="black"/>
<path d="M99.6973 93.8555C94.6191 93.8555 89.8665 93.0417 85.4395 91.4141C81.0124 89.7539 77.1549 87.3613 73.8672 84.2363C70.6445 81.1764 68.1055 77.4004 66.25 72.9082C64.3945 68.3835 63.4668 63.4193 63.4668 58.0156C63.4668 52.6445 64.3945 47.6803 66.25 43.123C68.138 38.5332 70.7747 34.5618 74.1602 31.209C77.4805 27.9212 81.4681 25.3822 86.123 23.5918C90.778 21.7689 95.7585 20.8574 101.064 20.8574C104.906 20.8574 108.405 21.3294 111.562 22.2734C114.72 23.1849 117.389 24.2266 119.57 25.3984L122.598 22.7129H126.846L127.285 48.0059H122.988C120.547 40.291 117.617 34.627 114.199 31.0137C110.781 27.4004 106.615 25.5938 101.699 25.5938C95.5794 25.5938 90.9245 28.2956 87.7344 33.6992C84.5443 39.0703 82.9492 46.6224 82.9492 56.3555C82.9492 61.8568 83.4863 66.5605 84.5605 70.4668C85.6673 74.3405 87.0996 77.4655 88.8574 79.8418C90.7454 82.3158 92.9753 84.1387 95.5469 85.3105C98.1185 86.4499 100.967 87.0195 104.092 87.0195C108.649 87.0195 112.702 85.7826 116.25 83.3086C119.831 80.8346 123.086 77.0911 126.016 72.0781L130.215 74.6172C128.815 77.4818 127.22 80.0534 125.43 82.332C123.639 84.5781 121.572 86.515 119.229 88.1426C116.657 89.9329 113.809 91.3327 110.684 92.3418C107.591 93.3509 103.929 93.8555 99.6973 93.8555Z" fill="black"/>
</svg>

